<?xml version="1.0" encoding="UTF-8" standalone="no"?>
<svg
   xmlns:dc="http://purl.org/dc/elements/1.1/"
   xmlns:cc="http://creativecommons.org/ns#"
   xmlns:rdf="http://www.w3.org/1999/02/22-rdf-syntax-ns#"
   xmlns:svg="http://www.w3.org/2000/svg"
   xmlns="http://www.w3.org/2000/svg"
   id="svg979"
   version="1.1"
   viewBox="0 0 26.625523 22.821899"
   height="22.821899mm"
   width="26.625523mm">
  <defs
     id="defs973" />
  <metadata
     id="metadata976">
    <rdf:RDF>
      <cc:Work
         rdf:about="">
        <dc:format>image/svg+xml</dc:format>
        <dc:type
           rdf:resource="http://purl.org/dc/dcmitype/StillImage" />
        <dc:title />
      </cc:Work>
    </rdf:RDF>
  </metadata>
  <g
     transform="translate(0.07898591,0.01653374)"
     id="layer1">
    <g
       transform="translate(-38.106926,-69.069162)"
       id="use951" />
    <g
       transform="translate(-57.859921,-112.94947)"
       id="g1574"
       clip-path="none">
      <g
         id="g1572">
        <g
           transform="matrix(0.26458333,0,0,0.26458333,15.37508,94.722647)"
           id="g1570"
           style="overflow:hidden">
          <path
             id="path1568"
             d="M 253.718,111.95429 H 246.53 V 90.390291 c 0,-11.889 -9.675,-21.564 -21.5638,-21.564 h -28.752 c -11.889,0 -21.5641,9.675 -21.5641,21.564 v 21.563999 h -7.188 c -3.975,0 -7.188,3.213 -7.188,7.188 v 28.752 c 0,3.975 3.213,7.188 7.188,7.188 h 86.2559 c 3.975,0 7.188,-3.213 7.188,-7.188 v -28.752 c 0,-3.975 -3.213,-7.188 -7.188,-7.188 z"
             style="overflow:hidden;fill:#000000" />
        </g>
      </g>
    </g>
  </g>
  <text x="50%" y="50%" dominant-baseline="middle" text-anchor="middle" style="fill:#ffffff;">7</text>
</svg>
