<svg width="214" height="261" xmlns="http://www.w3.org/2000/svg" xmlns:xlink="http://www.w3.org/1999/xlink" overflow="hidden"><defs><clipPath id="clip0"><rect x="570" y="327" width="214" height="261"/></clipPath></defs><g clip-path="url(#clip0)" transform="translate(-570 -327)"><path d="M172.233 132.974 157.977 131.275 163.611 84.0842 166.916 78.8637 210.065 51.7251 217.705 63.8718 177.457 89.188 172.233 132.974" fill="#BBBABA" transform="matrix(1 0 0 1.00041 496.107 276.148)"/><path d="M172.233 229.665 157.977 231.365 163.611 278.555 166.916 283.776 210.065 310.914 217.705 298.768 177.457 273.452Z" stroke="#231F20" stroke-width="1.70574" stroke-linecap="round" stroke-linejoin="round" stroke-miterlimit="10" fill="none" transform="matrix(1 0 0 -1.00041 496.107 638.937)"/><path d="M180.338 303.541 99.7723 303.541 81.4256 135.739 196.809 135.739 180.338 303.541" fill="#EF332E" transform="matrix(1 0 0 1.00041 496.107 276.148)"/><path d="M180.338 59.0984 99.7723 59.0984 81.4256 226.9 196.809 226.9Z" stroke="#231F20" stroke-width="1.70574" stroke-linecap="round" stroke-linejoin="round" stroke-miterlimit="10" fill="none" transform="matrix(1 0 0 -1.00041 496.107 638.937)"/><path d="M82.2218 219.648 94.3086 219.648" stroke="#231F20" stroke-width="1.70574" stroke-linecap="round" stroke-linejoin="round" stroke-miterlimit="10" fill="none" transform="matrix(1 0 0 -1.00041 496.107 638.937)"/><path d="M83.2046 210.629 95.0982 210.629" stroke="#231F20" stroke-width="1.70574" stroke-linecap="round" stroke-linejoin="round" stroke-miterlimit="10" fill="none" transform="matrix(1 0 0 -1.00041 496.107 638.937)"/><path d="M84.1941 201.614 95.8844 201.614" stroke="#231F20" stroke-width="1.70574" stroke-linecap="round" stroke-linejoin="round" stroke-miterlimit="10" fill="none" transform="matrix(1 0 0 -1.00041 496.107 638.937)"/><path d="M85.1802 192.599 96.6706 192.599" stroke="#231F20" stroke-width="1.70574" stroke-linecap="round" stroke-linejoin="round" stroke-miterlimit="10" fill="none" transform="matrix(1 0 0 -1.00041 496.107 638.937)"/><path d="M86.1664 183.577 97.4569 183.577" stroke="#231F20" stroke-width="1.70574" stroke-linecap="round" stroke-linejoin="round" stroke-miterlimit="10" fill="none" transform="matrix(1 0 0 -1.00041 496.107 638.937)"/><path d="M87.1492 174.562 98.2431 174.562" stroke="#231F20" stroke-width="1.70574" stroke-linecap="round" stroke-linejoin="round" stroke-miterlimit="10" fill="none" transform="matrix(1 0 0 -1.00041 496.107 638.937)"/><path d="M88.1386 165.544 99.026 165.544" stroke="#231F20" stroke-width="1.70574" stroke-linecap="round" stroke-linejoin="round" stroke-miterlimit="10" fill="none" transform="matrix(1 0 0 -1.00041 496.107 638.937)"/><path d="M89.1247 156.522 99.8156 156.522" stroke="#231F20" stroke-width="1.70574" stroke-linecap="round" stroke-linejoin="round" stroke-miterlimit="10" fill="none" transform="matrix(1 0 0 -1.00041 496.107 638.937)"/><path d="M90.1075 147.51 100.605 147.51" stroke="#231F20" stroke-width="1.70574" stroke-linecap="round" stroke-linejoin="round" stroke-miterlimit="10" fill="none" transform="matrix(1 0 0 -1.00041 496.107 638.937)"/><path d="M91.0903 138.492 101.391 138.492" stroke="#231F20" stroke-width="1.70574" stroke-linecap="round" stroke-linejoin="round" stroke-miterlimit="10" fill="none" transform="matrix(1 0 0 -1.00041 496.107 638.937)"/><path d="M92.0765 129.477 102.178 129.477" stroke="#231F20" stroke-width="1.70574" stroke-linecap="round" stroke-linejoin="round" stroke-miterlimit="10" fill="none" transform="matrix(1 0 0 -1.00041 496.107 638.937)"/><path d="M93.0659 120.455 102.967 120.455" stroke="#231F20" stroke-width="1.70574" stroke-linecap="round" stroke-linejoin="round" stroke-miterlimit="10" fill="none" transform="matrix(1 0 0 -1.00041 496.107 638.937)"/><path d="M94.0487 111.44 103.75 111.44" stroke="#231F20" stroke-width="1.70574" stroke-linecap="round" stroke-linejoin="round" stroke-miterlimit="10" fill="none" transform="matrix(1 0 0 -1.00041 496.107 638.937)"/><path d="M95.0349 102.421 104.536 102.421" stroke="#231F20" stroke-width="1.70574" stroke-linecap="round" stroke-linejoin="round" stroke-miterlimit="10" fill="none" transform="matrix(1 0 0 -1.00041 496.107 638.937)"/><path d="M96.0243 93.4064 105.329 93.4064" stroke="#231F20" stroke-width="1.70574" stroke-linecap="round" stroke-linejoin="round" stroke-miterlimit="10" fill="none" transform="matrix(1 0 0 -1.00041 496.107 638.937)"/><path d="M97.0071 84.3847 106.119 84.3847" stroke="#231F20" stroke-width="1.70574" stroke-linecap="round" stroke-linejoin="round" stroke-miterlimit="10" fill="none" transform="matrix(1 0 0 -1.00041 496.107 638.937)"/><path d="M97.9932 75.3662 106.898 75.3662" stroke="#231F20" stroke-width="1.70574" stroke-linecap="round" stroke-linejoin="round" stroke-miterlimit="10" fill="none" transform="matrix(1 0 0 -1.00041 496.107 638.937)"/><path d="M98.9794 66.3512 107.691 66.3512" stroke="#231F20" stroke-width="1.70574" stroke-linecap="round" stroke-linejoin="round" stroke-miterlimit="10" fill="none" transform="matrix(1 0 0 -1.00041 496.107 638.937)"/><path d="M203.346 144.848 74.8992 144.848 74.8992 123.959 203.346 123.959 203.346 144.848" fill="#FFFFFF" transform="matrix(1 0 0 1.00041 496.107 276.148)"/><path d="M203.346 217.792 74.8992 217.792 74.8992 238.681 203.346 238.681Z" stroke="#231F20" stroke-width="1.70574" stroke-linecap="round" stroke-linejoin="round" stroke-miterlimit="10" fill="none" transform="matrix(1 0 0 -1.00041 496.107 638.937)"/><path d="M75.1823 232.964 86.5328 232.964" stroke="#231F20" stroke-width="1.70574" stroke-linecap="round" stroke-linejoin="round" stroke-miterlimit="10" fill="none" transform="matrix(1 0 0 -1.00041 496.107 638.937)"/><path d="M75.4355 225.035 87.3224 225.035" stroke="#231F20" stroke-width="1.70574" stroke-linecap="round" stroke-linejoin="round" stroke-miterlimit="10" fill="none" transform="matrix(1 0 0 -1.00041 496.107 638.937)"/><path d="M159.523 243.728 166.063 243.728" stroke="#231F20" stroke-width="1.70574" stroke-linecap="round" stroke-linejoin="round" stroke-miterlimit="10" fill="none" transform="matrix(1 0 0 -1.00041 496.107 638.937)"/><path d="M167.642 284.122 172.992 280.368" stroke="#231F20" stroke-width="1.70574" stroke-linecap="round" stroke-linejoin="round" stroke-miterlimit="10" fill="#FFFFFF" transform="matrix(1 0 0 -1.00041 496.107 638.937)"/><path d="M160.426 251.647 166.956 251.647" stroke="#231F20" stroke-width="1.70574" stroke-linecap="round" stroke-linejoin="round" stroke-miterlimit="10" fill="none" transform="matrix(1 0 0 -1.00041 496.107 638.937)"/><path d="M161.619 259.569 167.858 259.569" stroke="#231F20" stroke-width="1.70574" stroke-linecap="round" stroke-linejoin="round" stroke-miterlimit="10" fill="none" transform="matrix(1 0 0 -1.00041 496.107 638.937)"/><path d="M162.518 267.491 168.751 267.491" stroke="#231F20" stroke-width="1.70574" stroke-linecap="round" stroke-linejoin="round" stroke-miterlimit="10" fill="none" transform="matrix(1 0 0 -1.00041 496.107 638.937)"/><path d="M175.351 288.72 178.539 284.459" stroke="#231F20" stroke-width="1.70574" stroke-linecap="round" stroke-linejoin="round" stroke-miterlimit="10" fill="#FFFFFF" transform="matrix(1 0 0 -1.00041 496.107 638.937)"/><path d="M180.482 292.115 183.67 287.85" stroke="#231F20" stroke-width="1.70574" stroke-linecap="round" stroke-linejoin="round" stroke-miterlimit="10" fill="#FFFFFF" transform="matrix(1 0 0 -1.00041 496.107 638.937)"/><path d="M185.615 295.503 188.8 291.239" stroke="#231F20" stroke-width="1.70574" stroke-linecap="round" stroke-linejoin="round" stroke-miterlimit="10" fill="#FFFFFF" transform="matrix(1 0 0 -1.00041 496.107 638.937)"/><path d="M190.743 298.888 193.931 294.627" stroke="#231F20" stroke-width="1.70574" stroke-linecap="round" stroke-linejoin="round" stroke-miterlimit="10" fill="#FFFFFF" transform="matrix(1 0 0 -1.00041 496.107 638.937)"/><path d="M196.203 301.819 199.061 298.018" stroke="#231F20" stroke-width="1.70574" stroke-linecap="round" stroke-linejoin="round" stroke-miterlimit="10" fill="#FFFFFF" transform="matrix(1 0 0 -1.00041 496.107 638.937)"/><path d="M201.527 305.008 204.192 301.406" stroke="#231F20" stroke-width="1.70574" stroke-linecap="round" stroke-linejoin="round" stroke-miterlimit="10" fill="#FFFFFF" transform="matrix(1 0 0 -1.00041 496.107 638.937)"/><path d="M206.691 308.559 209.323 304.794" stroke="#231F20" stroke-width="1.70574" stroke-linecap="round" stroke-linejoin="round" stroke-miterlimit="10" fill="#FFFFFF" transform="matrix(1 0 0 -1.00041 496.107 638.937)"/><path d="M163.561 275.417 169.648 275.417" stroke="#231F20" stroke-width="1.70574" stroke-linecap="round" stroke-linejoin="round" stroke-miterlimit="10" fill="none" transform="matrix(1 0 0 -1.00041 496.107 638.937)"/><path d="M150.711 219.427C147.776 219.427 145.184 217.665 144.111 214.936L140.094 204.742C138.658 201.104 140.45 196.976 144.088 195.54L265.479 147.676C266.315 147.35 267.188 147.18 268.081 147.18 271.012 147.18 273.604 148.945 274.684 151.674L278.701 161.868C279.394 163.631 279.361 165.56 278.608 167.295 277.852 169.035 276.466 170.374 274.704 171.067L153.313 218.931C152.477 219.26 151.604 219.427 150.711 219.427" fill="#FFFFFF" transform="matrix(1 0 0 1.00041 496.107 276.148)"/><path d="M268.077 146.823C267.144 146.823 266.225 147 265.349 147.346L143.958 195.207C140.137 196.716 138.251 201.05 139.76 204.875L143.778 215.066C144.908 217.931 147.63 219.787 150.715 219.787 151.647 219.787 152.567 219.61 153.443 219.264L274.833 171.403C276.686 170.67 278.142 169.264 278.935 167.439 279.728 165.613 279.764 163.587 279.035 161.738L275.017 151.544C273.884 148.676 271.159 146.823 268.077 146.823ZM268.077 147.54C270.766 147.54 273.304 149.159 274.35 151.807L278.368 161.998C279.731 165.46 278.032 169.371 274.574 170.737L153.183 218.601C152.37 218.917 151.534 219.071 150.715 219.071 148.026 219.071 145.487 217.451 144.441 214.803L140.427 204.612C139.061 201.147 140.76 197.239 144.221 195.87L265.612 148.013C266.421 147.693 267.258 147.54 268.077 147.54" fill="#231F20" transform="matrix(1 0 0 1.00041 496.107 276.148)"/><path d="M165.223 214.823 149.618 220.976 155.622 190.663 171.227 184.513 165.223 214.823" fill="#231F20" transform="matrix(1 0 0 1.00041 496.107 276.148)"/><path d="M197.885 201.947 182.277 208.097 188.284 177.786 203.889 171.633 197.885 201.947" fill="#231F20" transform="matrix(1 0 0 1.00041 496.107 276.148)"/><path d="M230.541 189.07 214.936 195.22 220.94 164.913 236.544 158.76 230.541 189.07" fill="#231F20" transform="matrix(1 0 0 1.00041 496.107 276.148)"/><path d="M263.2 176.194 247.595 182.344 253.602 152.037 269.203 145.884 263.2 176.194" fill="#231F20" transform="matrix(1 0 0 1.00041 496.107 276.148)"/><path d="M156.601 311.317C150.451 311.317 145.447 306.313 145.447 300.163L145.447 218.491 286.677 218.491 286.677 300.163C286.677 306.313 281.673 311.317 275.523 311.317L156.601 311.317" fill="#4F4C4C" transform="matrix(1 0 0 1.00041 496.107 276.148)"/><path d="M287.073 218.094 145.051 218.094 145.051 300.163C145.051 306.53 150.231 311.713 156.601 311.713L275.523 311.713C281.89 311.713 287.073 306.53 287.073 300.163ZM286.277 218.891 286.277 300.163C286.277 306.103 281.463 310.917 275.523 310.917L156.601 310.917C150.661 310.917 145.847 306.103 145.847 300.163L145.847 218.891 286.277 218.891" fill="#231F20" transform="matrix(1 0 0 1.00041 496.107 276.148)"/><path d="M145.487 239.429 145.487 218.228 286.514 218.228 286.514 239.429 145.487 239.429" fill="#FFFFFF" transform="matrix(1 0 0 1.00041 496.107 276.148)"/><path d="M286.874 217.868 145.131 217.868 145.131 239.786 286.874 239.786ZM286.157 218.584 286.157 239.073 145.847 239.073 145.847 218.584 286.157 218.584" fill="#231F20" transform="matrix(1 0 0 1.00041 496.107 276.148)"/><path d="M161.445 239.726 144.081 239.726 161.372 217.128 178.733 217.128 161.445 239.726" fill="#231F20" transform="matrix(1 0 0 1.00041 496.107 276.148)"/><path d="M197.779 239.726 180.418 239.726 197.702 217.128 215.069 217.128 197.779 239.726" fill="#231F20" transform="matrix(1 0 0 1.00041 496.107 276.148)"/><path d="M234.112 239.726 216.752 239.726 234.039 217.128 251.4 217.128 234.112 239.726" fill="#231F20" transform="matrix(1 0 0 1.00041 496.107 276.148)"/><path d="M270.449 239.726 253.085 239.726 270.373 217.128 287.736 217.128 270.449 239.726" fill="#231F20" transform="matrix(1 0 0 1.00041 496.107 276.148)"/><path d="M144.508 116.294 156.535 116.294" stroke="#231F20" stroke-width="0.596155" stroke-linecap="round" stroke-linejoin="round" stroke-miterlimit="10" fill="none" transform="matrix(1 0 0 -1.00041 496.107 638.937)"/><path d="M144.508 110.707 156.535 110.707" stroke="#231F20" stroke-width="0.596155" stroke-linecap="round" stroke-linejoin="round" stroke-miterlimit="10" fill="none" transform="matrix(1 0 0 -1.00041 496.107 638.937)"/><path d="M144.508 105.117 156.535 105.117" stroke="#231F20" stroke-width="0.596155" stroke-linecap="round" stroke-linejoin="round" stroke-miterlimit="10" fill="none" transform="matrix(1 0 0 -1.00041 496.107 638.937)"/><path d="M144.508 99.5297 156.535 99.5297" stroke="#231F20" stroke-width="0.596155" stroke-linecap="round" stroke-linejoin="round" stroke-miterlimit="10" fill="none" transform="matrix(1 0 0 -1.00041 496.107 638.937)"/><path d="M144.508 93.9428 156.535 93.9428" stroke="#231F20" stroke-width="0.596155" stroke-linecap="round" stroke-linejoin="round" stroke-miterlimit="10" fill="none" transform="matrix(1 0 0 -1.00041 496.107 638.937)"/><path d="M144.508 88.3558 156.535 88.3558" stroke="#231F20" stroke-width="0.596155" stroke-linecap="round" stroke-linejoin="round" stroke-miterlimit="10" fill="none" transform="matrix(1 0 0 -1.00041 496.107 638.937)"/><path d="M144.508 82.7655 156.535 82.7655" stroke="#231F20" stroke-width="0.596155" stroke-linecap="round" stroke-linejoin="round" stroke-miterlimit="10" fill="none" transform="matrix(1 0 0 -1.00041 496.107 638.937)"/><path d="M144.508 77.1786 156.535 77.1786" stroke="#231F20" stroke-width="0.596155" stroke-linecap="round" stroke-linejoin="round" stroke-miterlimit="10" fill="none" transform="matrix(1 0 0 -1.00041 496.107 638.937)"/><path d="M144.508 71.5883 156.535 71.5883" stroke="#231F20" stroke-width="0.596155" stroke-linecap="round" stroke-linejoin="round" stroke-miterlimit="10" fill="none" transform="matrix(1 0 0 -1.00041 496.107 638.937)"/><path d="M144.508 66.0014 156.535 66.0014" stroke="#231F20" stroke-width="0.596155" stroke-linecap="round" stroke-linejoin="round" stroke-miterlimit="10" fill="none" transform="matrix(1 0 0 -1.00041 496.107 638.937)"/><path d="M144.508 60.4111 156.535 60.4111" stroke="#231F20" stroke-width="0.596155" stroke-linecap="round" stroke-linejoin="round" stroke-miterlimit="10" fill="none" transform="matrix(1 0 0 -1.00041 496.107 638.937)"/><path d="M146.813 54.8241 158.84 54.8241" stroke="#231F20" stroke-width="0.596155" stroke-linecap="round" stroke-linejoin="round" stroke-miterlimit="10" fill="none" transform="matrix(1 0 0 -1.00041 496.107 638.937)"/><path d="M251.746 297.001 180.315 297.001 180.315 254.728 251.746 254.728 251.746 297.001" fill="#FFFFFF" transform="matrix(1 0 0 1.00041 496.107 276.148)"/><path d="M251.746 65.6382 180.315 65.6382 180.315 107.912 251.746 107.912Z" stroke="#231F20" stroke-width="0.715301" stroke-miterlimit="10" fill="none" transform="matrix(1 0 0 -1.00041 496.107 638.937)"/><path d="M197.016 262.89C197.133 262.48 197.219 262.07 197.396 261.687 197.542 261.338 198.219 260.748 198.598 260.864 198.892 260.984 199.511 261.248 199.688 261.747 199.891 262.277 199.921 262.833 199.921 263.303 199.951 264.446 199.861 265.592 199.891 266.738 199.951 268.94 200.038 271.112 200.158 273.284 200.244 275.193 200.361 277.132 200.477 279.041 200.597 280.654 200.801 282.296 200.861 283.942 200.947 285.764 200.917 287.583 200.917 289.402 200.917 289.492 200.917 289.579 200.917 289.669 200.917 289.695 200.917 289.695 200.917 289.695 201.244 290.578 200.627 291.195 199.981 291.281 199.128 291.371 198.688 290.635 198.718 289.932 198.775 289.169 198.892 288.403 198.865 287.643 198.835 285.764 198.718 283.912 198.628 282.033 198.598 281.477 198.542 280.92 198.512 280.331 198.482 279.598 198.425 278.865 198.482 278.128 198.542 277.425 198.425 276.749 198.365 276.073 198.305 275.283 198.189 274.49 198.129 273.694 198.012 272.318 197.925 270.936 197.835 269.556 197.809 268.88 197.779 268.177 197.779 267.501L197.662 267.884C197.366 268.88 197.219 269.94 196.986 270.966 196.866 271.435 196.543 272.168 195.663 272.228 194.577 272.318 194.371 271.405 194.284 270.996 194.108 270.056 193.931 269.117 193.698 268.177 193.638 267.971 193.581 267.794 193.491 267.617 193.461 267.501 193.405 267.384 193.345 267.264 193.375 268.56 193.405 269.85 193.405 271.142 193.431 273.844 193.375 276.546 193.405 279.274 193.405 281.123 193.431 283.002 193.491 284.851 193.551 286.321 193.754 287.79 193.784 289.226 193.814 289.815 193.228 290.372 192.815 290.488 191.759 290.811 191.496 289.755 191.496 289.372 191.496 287.26 191.436 285.175 191.406 283.092 191.379 281.653 191.319 280.214 191.319 278.805 191.319 277.016 191.379 275.25 191.379 273.491 191.349 271.142 191.259 268.793 191.232 266.445 191.202 265.445 191.259 264.446 191.259 263.45 191.259 263.273 191.202 263.067 191.202 262.89 191.172 262.687 191.112 262.394 191.142 262.13 191.172 261.834 191.349 261.101 191.875 260.894 192.199 260.748 193.198 260.485 193.551 261.541 194.051 263.01 194.577 264.446 195.107 265.915 195.284 266.445 195.46 267.001 195.607 267.531L197.016 262.89" fill="#231F20" transform="matrix(1 0 0 1.00041 496.107 276.148)"/><path d="M209.229 263.243C209.169 263.187 209.113 263.127 209.023 263.067 208.966 263.01 208.876 262.92 208.819 262.803 208.79 262.743 208.819 262.833 208.73 262.89 207.937 263.626 207.643 264.652 207.437 265.768 206.997 268.324 206.644 270.879 206.441 273.461 206.294 275.633 206.381 277.805 206.381 279.947 206.734 282.269 207.057 284.558 207.41 286.85 207.527 287.523 207.673 288.17 207.967 288.669 208.053 288.816 208.346 289.049 208.7 289.139 208.673 289.109 208.673 289.079 208.643 289.079 208.73 288.962 208.79 288.786 208.846 288.699 208.936 288.493 208.993 288.289 209.053 288.053 209.139 287.82 209.199 287.583 209.259 287.347 209.669 285.997 209.786 284.588 209.876 283.149 209.992 281.713 210.022 280.244 210.199 278.805 210.372 277.132 210.285 275.427 210.315 273.724 210.345 272.082 210.432 270.439 210.372 268.793 210.345 267.501 210.049 266.212 209.962 264.916 209.932 264.183 209.729 263.656 209.229 263.243ZM212.078 280.624C211.958 282.269 211.871 283.885 211.665 285.498 211.518 286.76 211.195 287.993 210.902 289.226 210.698 290.138 210.139 291.048 208.993 291.251 208.023 291.428 206.734 290.928 206.148 289.902 205.881 289.462 205.705 288.932 205.618 288.463 205.381 287.23 205.178 285.967 204.825 284.148L204.942 284.148C204.795 283.239 204.618 282.356 204.562 281.447 204.445 279.538 204.385 277.599 204.385 275.693 204.385 273.901 204.445 272.082 204.592 270.289 204.678 269.143 204.912 267.971 205.148 266.828 205.355 265.768 205.588 264.682 205.971 263.686 206.294 262.803 206.851 261.984 207.35 261.278 207.937 260.455 209.816 260.688 210.372 261.218 211.315 262.04 211.988 263.067 212.048 264.479 212.108 265.445 212.398 266.415 212.428 267.414 212.487 269.03 212.428 270.642 212.428 272.258 212.428 273.224 212.428 274.224 212.398 275.223 212.311 277.016 212.194 278.835 212.078 280.624" fill="#231F20" transform="matrix(1 0 0 1.00041 496.107 276.148)"/><path d="M222.675 261.394C222.792 260.954 223.175 260.778 223.585 260.748 224.055 260.718 224.468 260.954 224.584 261.424 224.614 261.571 224.614 261.717 224.614 261.807 224.614 261.864 224.584 261.924 224.584 261.984 224.524 263.067 224.378 264.126 224.231 265.182 223.881 267.941 223.468 270.702 223.115 273.431 222.619 277.102 222.119 280.774 221.649 284.442 221.413 286.261 221.206 288.113 221.029 289.962 220.943 290.751 220.357 291.311 219.594 291.281 218.741 291.251 218.538 290.548 218.478 289.932 218.301 287.437 218.124 284.911 217.861 282.416 217.655 280.537 217.332 278.658 217.128 276.749 216.952 274.93 216.862 273.108 216.745 271.259 216.715 271.022 216.715 270.759 216.685 270.496 216.452 268.264 216.215 266.035 215.982 263.803 215.922 263.243 215.746 262.687 215.659 262.13 215.629 261.924 215.689 261.747 215.719 261.631 215.719 261.541 215.746 261.454 215.866 261.011 217.098 260.748 217.685 261.188 217.801 262.01 217.978 263.45 218.241 264.889 218.361 266.328 218.594 268.763 218.681 271.199 218.917 273.637 219.124 275.72 219.417 277.775 219.654 279.861 219.74 280.624 219.8 281.39 219.887 282.153L220.033 280.947C220.21 279.421 220.503 277.922 220.71 276.426 220.973 274.694 221.236 272.961 221.473 271.199 221.706 269.616 221.912 268.001 222.119 266.415 222.295 264.976 222.412 263.54 222.559 262.13 222.529 261.954 222.529 261.777 222.619 261.601 222.619 261.541 222.645 261.454 222.675 261.394" fill="#231F20" transform="matrix(1 0 0 1.00041 496.107 276.148)"/><path d="M229.018 264.769 230.368 263.363C230.221 266.475 230.105 268.763 230.045 271.082 229.988 273.021 230.018 274.96 229.988 276.926 229.958 278.658 229.868 280.39 229.838 282.123 229.838 282.886 229.928 283.649 229.958 284.442 229.988 286.321 230.045 288.2 230.018 290.109 230.018 290.518 229.518 291.281 228.902 291.281 228.166 291.251 227.726 290.725 227.756 289.962 227.812 287.993 227.842 285.997 227.842 284.029 227.842 281.826 227.812 279.628 227.812 277.452 227.812 275.87 227.812 274.284 227.842 272.698 227.902 270.879 228.049 269.087 228.079 267.294 228.109 265.592 228.019 263.863 227.959 262.157 227.959 261.687 228.049 260.748 229.135 260.748 229.605 260.748 229.958 260.984 230.105 261.364 230.161 261.601 230.161 261.807 230.191 262.04 230.251 262.717 230.308 263.39 230.428 264.652L229.018 264.769" fill="#231F20" transform="matrix(1 0 0 1.00041 496.107 276.148)"/><path d="M238.297 289.169C238.56 289.226 238.766 289.462 238.913 289.669 238.94 289.755 238.97 289.815 239.03 289.902 239.03 289.932 239.06 289.992 239.439 290.518 238.853 290.901 238.766 290.988 238.677 291.048 238.56 291.108 238.327 291.281 238.03 291.281 237.474 291.281 236.888 291.195 236.328 291.135 236.151 291.108 236.005 291.075 235.831 291.048 235.448 291.018 235.155 290.988 234.949 290.928 234.246 290.781 233.979 290.372 233.922 289.725 233.922 289.492 233.922 289.199 233.952 288.786 234.009 287.467 234.039 286.144 234.069 284.851 234.099 283.502 234.186 282.18 234.186 280.86 234.216 278.865 234.156 276.866 234.216 274.87 234.246 272.961 234.392 271.022 234.422 269.087 234.449 267.001 234.392 264.916 234.392 262.833 234.392 262.687 234.332 262.51 234.332 262.364 234.302 262.1 234.332 261.777 234.509 261.541 234.832 261.188 235.362 260.838 235.888 260.808 236.944 260.718 238.03 260.778 239.09 260.748 239.439 260.748 240.379 260.808 240.409 261.834 240.409 262.657 239.823 263.067 239.116 263.067 238.237 263.067 237.387 263.067 236.448 263.067L236.448 269.793C236.974 269.733 237.504 269.703 238.004 269.586 238.707 269.44 239.263 269.82 239.353 270.439 239.413 270.849 239.323 271.788 238.297 271.818 237.65 271.845 237.004 271.905 236.358 271.905 236.328 273.754 236.271 275.603 236.241 277.452 236.181 280.39 236.151 283.326 236.095 286.261 236.095 287.113 236.095 287.966 236.095 288.816 236.858 288.816 237.62 288.992 238.297 289.169" fill="#231F20" transform="matrix(1 0 0 1.00041 496.107 276.148)"/></g></svg>